<?xml version="1.0" standalone="no"?><!DOCTYPE svg PUBLIC "-//W3C//DTD SVG 1.1//EN" "http://www.w3.org/Graphics/SVG/1.1/DTD/svg11.dtd"><svg class="icon" height="512" viewBox="0 0 1024 1024" version="1.1" xmlns="http://www.w3.org/2000/svg"><path d="M792.96 390.4c-14.293333-5.333333-29.866667-10.666667-46.08-15.146667 4.266667-16.64 7.466667-32.64 9.813333-47.573333 13.653333-84.693333-1.28-144.426667-42.026666-167.893333a79.786667 79.786667 0 0 0-40.533334-10.24c-35.626667 0-79.146667 20.053333-125.866666 57.813333-11.733333 9.6-23.893333 20.48-36.266667 32.426667a541.44 541.44 0 0 0-36.053333-32.426667c-46.506667-37.76-90.24-57.813333-125.866667-57.813333-14.933333 0-28.586667 3.413333-40.533333 10.24-40.533333 23.466667-55.466667 83.2-42.026667 167.893333 2.346667 14.933333 5.76 30.933333 10.026667 47.573333-16.426667 4.693333-32 9.813333-46.293334 15.146667-80.213333 30.72-124.373333 73.386667-124.373333 120.32 0 46.933333 44.16 89.6 124.373333 120.32 14.293333 5.333333 29.866667 10.666667 46.293334 15.146667-4.266667 16.64-7.68 32.64-10.026667 47.573333-13.44 84.693333 1.28 144.426667 42.026667 167.893333 11.946667 6.826667 25.6 10.24 40.533333 10.24 35.626667 0 79.146667-20.053333 125.866667-57.813333 11.733333-9.6 23.893333-20.48 36.266666-32.426667 12.16 11.946667 24.32 22.826667 36.266667 32.426667 46.506667 37.76 90.026667 57.813333 125.866667 57.813333 14.933333 0 28.586667-3.413333 40.533333-10.24 40.533333-23.466667 55.466667-83.2 41.813333-167.893333-2.346667-14.933333-5.76-30.933333-9.813333-47.573333 16.426667-4.693333 32-9.813333 46.08-14.933334 80.213333-30.933333 124.373333-73.6 124.373333-120.533333s-44.16-89.6-124.373333-120.32zM674.133333 182.186667c9.173333 0 17.493333 2.133333 24.32 5.973333 33.706667 19.2 40.106667 87.893333 17.066667 179.2-34.346667-7.893333-71.466667-13.866667-110.506667-17.28a839.253333 839.253333 0 0 0-70.4-87.253333c52.693333-51.2 103.466667-80.64 139.52-80.64zM369.066667 593.066667c8.533333 14.506667 17.066667 29.013333 26.453333 43.093333a772.693333 772.693333 0 0 1-78.08-13.226667c7.466667-24.106667 16.64-49.066667 27.52-74.453333 7.68 14.933333 15.786667 29.866667 24.106667 44.586667z m-51.626667-194.986667c24.533333-5.546667 50.773333-10.026667 78.08-13.226667a1042.773333 1042.773333 0 0 0-50.56 87.466667c-10.88-25.173333-20.053333-50.133333-27.733333-74.24z m44.8 112.426667a1023.36 1023.36 0 0 1 74.666667-129.706667 1025.706667 1025.706667 0 0 1 149.76 0 1022.506667 1022.506667 0 0 1 74.88 129.706667 1022.72 1022.72 0 0 1-74.666667 129.706666 1024.853333 1024.853333 0 0 1-149.76 0 1024.64 1024.64 0 0 1-74.88-129.706666z m292.48 82.56c8.533333-14.72 16.426667-29.44 24.32-44.586667 10.666667 25.6 20.053333 50.346667 27.52 74.453333-24.533333 5.546667-50.773333 10.026667-78.08 13.226667 8.96-14.08 17.92-28.586667 26.24-43.093333z m0-165.12c-8.533333-14.506667-17.066667-29.013333-26.24-43.093334 27.306667 3.2 53.333333 7.68 78.08 13.226667-7.466667 24.106667-16.853333 49.066667-27.733333 74.453333-7.68-14.933333-15.573333-29.866667-24.106667-44.586666z m-92.16-81.066667a1042.346667 1042.346667 0 0 0-101.12 0c16.426667-22.186667 33.493333-42.666667 50.56-61.013333 17.066667 18.346667 34.133333 38.826667 50.56 61.013333z m-236.8-158.933333c6.613333-4.053333 14.933333-5.973333 24.32-5.973334 35.84 0 86.613333 29.44 139.306667 80.64a839.04 839.04 0 0 0-70.4 87.253334c-38.826667 3.413333-76.16 9.386667-110.506667 17.066666-23.04-91.093333-16.64-159.573333 17.066667-179.2zM139.306667 510.72c0-39.04 56.106667-78.933333 146.773333-104.533333a838.186667 838.186667 0 0 0 40.32 104.533333 839.253333 839.253333 0 0 0-40.533333 104.533333c-90.453333-25.6-146.56-65.493333-146.56-104.533333z m210.773333 328.533333c-9.386667 0-17.706667-2.133333-24.533333-5.973333-33.706667-19.2-40.106667-87.893333-17.066667-179.2 34.346667 7.893333 71.68 13.866667 110.72 17.28a838.4 838.4 0 0 0 70.186667 87.253333c-52.693333 51.2-103.466667 80.64-139.306667 80.64z m111.36-164.906666a1041.92 1041.92 0 0 0 101.12 0A772.266667 772.266667 0 0 1 512 735.36c-17.066667-18.346667-34.133333-38.826667-50.56-61.013333z m236.8 158.933333c-6.826667 4.053333-14.933333 5.973333-24.32 5.973333-36.053333 0-86.826667-29.44-139.52-80.64a838.4 838.4 0 0 0 70.4-87.253333c39.04-3.413333 76.16-9.386667 110.506667-17.066667 23.04 91.093333 16.64 159.573333-17.066667 179.2z m39.68-218.026667a837.76 837.76 0 0 0-40.533333-104.533333c16.64-35.626667 30.08-70.826667 40.533333-104.533333 90.453333 25.6 146.56 65.493333 146.56 104.533333 0 39.04-56.106667 78.933333-146.56 104.533333z m-299.946667-104.533333a72.533333 72.533333 0 1 1 145.066667 0 72.533333 72.533333 0 0 1-145.066667 0z" fill="#05BFF5" /></svg>